<svg data-v-0dd9719b="" version="1.0" xmlns="http://www.w3.org/2000/svg" xmlns:xlink="http://www.w3.org/1999/xlink" width="100%" height="100%" viewBox="0 0 340.000000 250.000000" preserveAspectRatio="xMidYMid meet" color-interpolation-filters="sRGB" style="margin: auto;"> <rect data-v-0dd9719b="" x="0" y="0" width="100%" height="100%" fill="#fff" fill-opacity="1" class="background"></rect> <rect data-v-0dd9719b="" x="0" y="0" width="100%" height="100%" fill="url(#watermark)" fill-opacity="1" class="watermarklayer"></rect> <g data-v-0dd9719b="" fill="#72cc0a" class="icon-text-wrapper icon-svg-group iconsvg" transform="translate(46.970001220703125,95.00090026855469)"><g class="iconsvg-imagesvg" transform="translate(0,0)"><g><rect fill="#72cc0a" fill-opacity="0" stroke-width="2" x="0" y="0" width="60" height="59.99820005399838" class="image-rect"></rect> <svg x="0" y="0" width="60" height="59.99820005399838" filtersec="colorsb3163869805" class="image-svg-svg primary" style="overflow: visible;"><svg version="1.1" id="图层_1" xmlns="http://www.w3.org/2000/svg" xmlns:xlink="http://www.w3.org/1999/xlink" x="0px" y="0px" viewBox="0.14634323120117188 0.34535980224609375 99.65884399414062 99.65540313720703" enable-background="new 0 0 101 100" xml:space="preserve">
<path fill="#017A5C" d="M61.76,97.58c33.57,6.97,42.44-16.43,36.18-41.75c-3.42,10.02-10.23,18.91-18.72,26.1
	C76.91,90.79,71.3,96.89,61.76,97.58L61.76,97.58z M95.74,48.54c-0.08-0.23-0.17-0.47-0.25-0.7c-4.12,5.95-9.47,11.28-15.53,15.84
	c0.53,4.2,0.65,8.22,0.32,11.95C88.12,68.03,93.9,58.79,95.74,48.54L95.74,48.54z M93.69,43.36C84.04,21.21,63.88,1.19,39.71,2.72
	c20.71,9.46,35.36,34.52,39.53,56.51C85.02,54.63,90.02,49.3,93.69,43.36L93.69,43.36z"></path>
<path fill="#4D4D4D" d="M2.57,61.95c-6.98,33.62,16.5,42.47,41.86,36.16c-9.99-3.41-18.85-10.19-26.03-18.65
	C9.45,77.18,3.27,71.57,2.57,61.95L2.57,61.95z M51.69,95.9l0.71-0.26c-5.94-4.12-11.26-9.46-15.82-15.51
	c-4.18,0.54-8.2,0.66-11.92,0.35C32.26,88.3,41.48,94.06,51.69,95.9L51.69,95.9z M56.88,93.84C79,84.17,98.96,64.04,97.43,39.9
	c-9.45,20.67-34.42,35.31-56.39,39.51C45.63,85.18,50.96,90.17,56.88,93.84L56.88,93.84z"></path>
<path fill="#72CC0A" d="M38.2,2.76C4.7-4.2-4.21,19.1,1.97,44.35c3.46-9.98,10.28-18.84,18.78-26C23.07,9.53,28.67,3.46,38.2,2.76
	L38.2,2.76z M4.14,51.6c0.1,0.27,0.2,0.55,0.3,0.82c4.13-5.94,9.49-11.25,15.55-15.8c-0.53-4.21-0.64-8.25-0.31-11.98
	C11.84,32.21,6.04,41.41,4.14,51.6L4.14,51.6z M6.24,56.91c9.64,22.18,29.81,42.25,54.01,40.72C39.53,88.15,24.87,63.08,20.7,41.08
	C14.92,45.66,9.92,50.98,6.24,56.91L6.24,56.91z"></path>
<path fill="#B3B3B3" d="M97.39,38.39C104.35,4.89,81.05-4.01,55.8,2.17c9.98,3.46,18.84,10.28,25.99,18.78
	C90.62,23.26,96.69,28.86,97.39,38.39L97.39,38.39z M48.55,4.34c-0.27,0.1-0.55,0.2-0.82,0.3c5.94,4.13,11.25,9.49,15.8,15.55
	c4.21-0.53,8.25-0.64,11.98-0.31C67.94,12.04,58.74,6.24,48.55,4.34L48.55,4.34z M43.24,6.43C21.06,16.07,0.99,36.24,2.52,60.44
	c9.47-20.72,34.54-35.38,56.54-39.54C54.48,15.12,49.17,10.11,43.24,6.43L43.24,6.43z"></path>
<path fill="#017A5C" d="M91.82,39.35C81.58,18.85,62.41,1.28,39.71,2.72c14.57,6.66,26.14,21.04,33.17,36.63H91.82L91.82,39.35z"></path>
</svg></svg> <!----></g></g> <g transform="translate(67.00000381469727,13.35409927368164)"><g data-gra="path-name" fill-rule="" class="tp-name iconsvg-namesvg"><g transform="scale(1)"><g><path d="M16.05 2.51Q11.08 2.51 7.55 0.31 4.03-1.89 2.25-5.54 0.47-9.19 0.47-13.54L0.47-13.54Q0.47-18.37 2.53-22.16 4.59-25.95 8.31-28.06 12.03-30.17 16.81-30.17L16.81-30.17Q18.66-30.17 20.22-29.93 21.78-29.69 23.68-29.31L23.68-29.31Q24.39-29.12 25-29.03L25-29.03Q24.86-25.38 25.81-21.59L25.81-21.59 24.48-21.26Q23.77-23.82 22.87-25.26 21.97-26.71 20.36-27.47L20.36-27.47Q19.51-27.89 18.3-28.13 17.1-28.37 15.82-28.37L15.82-28.37Q12.36-28.37 9.92-26.59 7.48-24.81 6.23-21.69 4.97-18.56 4.97-14.54L4.97-14.54Q4.97-9.94 6.35-6.49 7.72-3.03 10.25-1.16 12.79 0.71 16.24 0.71L16.24 0.71Q19.42 0.71 21.36-0.95 23.3-2.6 25.05-6.39L25.05-6.39 26.33-5.87Q24.53-2.6 23.96 1.37L23.96 1.37Q21.59 1.89 19.87 2.2 18.14 2.51 16.05 2.51L16.05 2.51ZM41.63 2.51Q37.55 2.51 34.29 0.4 31.02-1.7 29.15-5.4 27.28-9.09 27.28-13.54L27.28-13.54Q27.28-17.9 29.05-21.71 30.83-25.52 34.14-27.85 37.46-30.17 41.86-30.17L41.86-30.17Q45.56-30.17 48.78-28.18 52-26.19 53.94-22.54 55.88-18.9 55.88-14.25L55.88-14.25Q55.88-9.23 54.01-5.42 52.14-1.61 48.87 0.45 45.6 2.51 41.63 2.51L41.63 2.51ZM42.34 1.09Q46.46 1.09 48.97-2.46 51.48-6.01 51.48-12.88L51.48-12.88Q51.48-17.9 50.08-21.5 48.68-25.1 46.29-26.95 43.9-28.79 41.01-28.79L41.01-28.79Q38.55-28.79 36.44-27.21 34.33-25.62 33.05-22.47 31.78-19.32 31.78-14.87L31.78-14.87Q31.78-10.32 33.13-6.68 34.48-3.03 36.89-0.97 39.31 1.09 42.34 1.09L42.34 1.09ZM88.98 0.43L93.1 0.43 93.1 1.8 81.64 1.8 81.64 0.43 85.24 0.43 85.29-25 81.93-16.67Q76.01-2.23 74.54 1.8L74.54 1.8 73.4 1.8Q71.08-5.07 63.79-24.53L63.79-24.53Q63.17-9.09 63.03-0.76L63.03-0.76Q62.98-0.24 62.98 0.43L62.98 0.43 67.06 0.43 67.06 1.8 56.83 1.8 56.83 0.43 60.52 0.43 62.04-28.08 58.11-28.08 58.11-29.5 62.13-29.46 62.13-29.5 65.59-29.5 75.15-5.07 85.38-29.5 88.84-29.5 92.91-29.46 92.91-28.08 88.84-28.08 88.98 0.43ZM112.14-28.08L100.44-28.08 100.44-15.25 107.31-15.25Q108.26-15.25 108.8-15.46 109.34-15.67 109.91-16.1L109.91-16.1Q110.15-16.29 110.41-16.43 110.67-16.57 111-16.57L111-16.57Q111.57-16.57 111.97-16.17 112.38-15.77 112.38-15.2L112.38-15.2Q112.38-14.63 111.97-14.25 111.57-13.88 111-13.88L111-13.88 100.44-13.88 100.44 0.43 103.47 0.43 103.47 1.8 94.05 1.8 94.05 0.43 96.7 0.43 96.7-26.99Q96.7-27.18 96.58-27.32 96.46-27.47 96.27-27.47L96.27-27.47 94.19-27.47 94.19-28.65Q95.8-29.12 96.7-29.46 97.6-29.79 99.07-30.45L99.07-30.45Q99.26-30.54 99.4-30.54L99.4-30.54Q99.87-30.54 100.21-30.12L100.21-30.12Q100.3-30.07 100.7-29.79 101.1-29.5 101.63-29.5L101.63-29.5 108.45-29.46Q109.39-29.46 109.94-29.67 110.48-29.88 111.05-30.31L111.05-30.31Q111.29-30.5 111.55-30.64 111.81-30.78 112.14-30.78L112.14-30.78Q112.71-30.78 113.11-30.38 113.51-29.98 113.51-29.46L113.51-29.46Q113.51-28.89 113.11-28.48 112.71-28.08 112.14-28.08L112.14-28.08ZM134.44-1.28Q135.2-0.66 135.2 0.19L135.2 0.19Q135.2 0.85 134.7 1.33 134.21 1.8 133.31 1.8L133.31 1.8 121.85 1.8Q119.86 1.8 118.44 0.38 117.02-1.04 117.02-3.08L117.02-3.08 117.02-26.99Q117.02-27.18 116.87-27.32 116.73-27.47 116.54-27.47L116.54-27.47 114.46-27.47 114.46-28.65Q116.07-29.12 116.97-29.43 117.87-29.74 119.34-30.4L119.34-30.4 119.72-30.5Q120.14-30.5 120.47-30.17L120.47-30.17Q120.95-29.83 121.21-29.67 121.47-29.5 121.89-29.5L121.89-29.5 128.71-29.46Q129.71-29.46 130.28-29.69 130.84-29.93 131.32-30.31L131.32-30.31Q131.41-30.36 131.72-30.57 132.03-30.78 132.45-30.78L132.45-30.78Q132.98-30.78 133.38-30.38 133.78-29.98 133.78-29.46L133.78-29.46Q133.78-28.89 133.38-28.48 132.98-28.08 132.45-28.08L132.45-28.08 120.71-28.08 120.71-15.25 128.71-15.25Q129.71-15.25 130.28-15.49 130.84-15.72 131.32-16.1L131.32-16.1Q131.41-16.15 131.72-16.36 132.03-16.57 132.45-16.57L132.45-16.57Q132.98-16.57 133.38-16.17 133.78-15.77 133.78-15.2L133.78-15.2Q133.78-14.63 133.38-14.25 132.98-13.88 132.45-13.88L132.45-13.88 120.71-13.88 120.71-2.42Q120.71-1.94 121.04-1.63 121.37-1.33 121.85-1.33L121.85-1.33 129.71-1.33Q131.08-1.33 131.65-2.18 132.22-3.03 132.22-5.02L132.22-5.02 132.74-5.02Q132.74-3.74 132.95-3.05 133.16-2.37 133.47-2.08 133.78-1.8 134.44-1.28L134.44-1.28ZM156.13-1.28Q156.89-0.66 156.89 0.19L156.89 0.19Q156.89 0.85 156.39 1.33 155.9 1.8 155 1.8L155 1.8 143.54 1.8Q141.55 1.8 140.13 0.38 138.71-1.04 138.71-3.08L138.71-3.08 138.71-26.99Q138.71-27.18 138.56-27.32 138.42-27.47 138.23-27.47L138.23-27.47 136.15-27.47 136.15-28.65Q137.76-29.12 138.66-29.43 139.56-29.74 141.03-30.4L141.03-30.4 141.4-30.5Q141.83-30.5 142.16-30.17L142.16-30.17Q142.64-29.83 142.9-29.67 143.16-29.5 143.58-29.5L143.58-29.5 150.4-29.46Q151.4-29.46 151.97-29.69 152.53-29.93 153.01-30.31L153.01-30.31Q153.1-30.36 153.41-30.57 153.72-30.78 154.14-30.78L154.14-30.78Q154.66-30.78 155.07-30.38 155.47-29.98 155.47-29.46L155.47-29.46Q155.47-28.89 155.07-28.48 154.66-28.08 154.14-28.08L154.14-28.08 142.4-28.08 142.4-15.25 150.4-15.25Q151.4-15.25 151.97-15.49 152.53-15.72 153.01-16.1L153.01-16.1Q153.1-16.15 153.41-16.36 153.72-16.57 154.14-16.57L154.14-16.57Q154.66-16.57 155.07-16.17 155.47-15.77 155.47-15.2L155.47-15.2Q155.47-14.63 155.07-14.25 154.66-13.88 154.14-13.88L154.14-13.88 142.4-13.88 142.4-2.42Q142.4-1.94 142.73-1.63 143.06-1.33 143.54-1.33L143.54-1.33 151.4-1.33Q152.77-1.33 153.34-2.18 153.91-3.03 153.91-5.02L153.91-5.02 154.43-5.02Q154.43-3.74 154.64-3.05 154.85-2.37 155.16-2.08 155.47-1.8 156.13-1.28L156.13-1.28ZM178.77-1.28Q179.53-0.71 179.53 0.19L179.53 0.19Q179.53 0.85 179.03 1.33 178.53 1.8 177.63 1.8L177.63 1.8 166.6 1.8Q164.56 1.8 163.14 0.38 161.72-1.04 161.72-3.08L161.72-3.08 161.72-28.08 157.84-28.08 157.84-29.5 169.39-29.46 169.39-28.08 165.46-28.08 165.46-2.42Q165.46-1.94 165.79-1.63 166.12-1.33 166.6-1.33L166.6-1.33 174.03-1.33Q175.41-1.33 176-2.18 176.59-3.03 176.59-5.02L176.59-5.02 177.11-5.02Q177.11-3.74 177.32-3.05 177.54-2.37 177.82-2.08 178.11-1.8 178.77-1.28L178.77-1.28Z" transform="translate(-0.4700000286102295, 30.780000686645508)"></path></g> <!----> <!----> <!----> <!----> <!----> <!----> <!----></g></g> <!----></g></g><defs v-gra="od"></defs></svg>